{"title":"DCI Banks S03","uid":9983332,"size":1922122150,"categoryP":"video","categoryS":"tv_shows","magnet":"?xt=urn:btih:974dc86826a973515d3f9b5ca9a7e962d30df29a&amp;dn=DCI+Banks+S03&amp;tr=udp%3A%2F%2Ftracker.openbittorrent.com%3A80&amp;tr=udp%3A%2F%2Fopen.demonii.com%3A1337&amp;tr=udp%3A%2F%2Ftracker.coppersurfer.tk%3A6969&amp;tr=udp%3A%2F%2Fexodus.desync.com%3A6969","seeders":15,"leechers":1,"uploader":"RedBaron58","files":3,"time":1397760496,"description":"DCI Banks Series 3 2012 DVDRip x264 mp4\n\nDVD has double episode length Versions approx 90 min length each.\n  &lt;a href=&quot;\nhttp://www.imdb.com/title/tt1652216/&quot; rel=&quot;nofollow&quot; target=&quot;_NEW&quot;&gt;\nhttp://www.imdb.com/title/tt1652216/&lt;/a&gt;\n\n\nThank you for your kind comments and thumbs ups on my other torrents, your feedback is welcome.\n\n\nAbout the Series:\n\nStrange Affair\nWith DS Annie Cabbot about to take maternity leave, no-nonsense DI Helen Morton joins the team. \nA disturbing late-night message from his estranged brother Roy leads DCI Banks to go in search of him, \nwithout telling anyone.\n\nDry Bones That Dream\nA hitman bursts into the home of wealthy accountant Keith Rothwell, takes him to the garage and \nshoots him in cold blood, while his wife and daughter are inside the house. \nDCI Banks is instantly struck by the way the victim's family has responded to the shocking event\n\nInnocent Graves\nFrustrated that a number of cases have been knocked back by the CPS, DCI Banks and his team are \ncalled on to investigate the murder of teenager Ellie Clayton, daughter of a high-profile Internet \nentrepreneur.\n\n\nI hope you enjoy.\n\nTechnical (All episodes encoded to same settings)\n\nGeneral\nComplete name                            : G:DCI Banks S03DCI Banks S03E01 Strange Affair x264 RB58.mp4\nFormat                                   : MPEG-4\nFormat profile                           : Base Media / Version 2\nCodec ID                                 : mp42\nFile size                                : 614 MiB\nDuration                                 : 1h 29mn\nOverall bit rate mode                    : Variable\nOverall bit rate                         : 957 Kbps\nEncoded date                             : UTC 2014-04-16 11:10:43\nTagged date                              : UTC 2014-04-16 11:28:24\nWriting application                      : HandBrake 0.9.8 2012071700\n\nVideo\nID                                       : 1\nFormat                                   : AVC\nFormat/Info                              : Advanced Video Codec\nFormat profile                           : &lt;a class=&quot;__cf_email__&quot; href=&quot;/cdn-cgi/l/email-protection&quot; data-cfemail=&quot;084569616648443b2638&quot;&gt;[email&amp;#160;protected]&lt;/a&gt;&lt;script cf-hash='f9e31' type=&quot;text/javascript&quot;&gt;\n/* &lt;![CDATA[ */!function(){try{var t=&quot;currentScript&quot;in document?document.currentScript:function(){for(var t=document.getElementsByTagName(&quot;script&quot;),e=t.length;e--;)if(t[e].getAttribute(&quot;cf-hash&quot;))return t[e]}();if(t&amp;&amp;t.previousSibling){var e,r,n,i,c=t.previousSibling,a=c.getAttribute(&quot;data-cfemail&quot;);if(a){for(e=&quot;&quot;,r=parseInt(a.substr(0,2),16),n=2;a.length-n;n+=2)i=parseInt(a.substr(n,2),16)^r,e+=String.fromCharCode(i);e=document.createTextNode(e),c.parentNode.replaceChild(e,c)}}}catch(u){}}();/* ]]&gt; */&lt;/script&gt;\nFormat settings, CABAC                   : Yes\nFormat settings, ReFrames                : 4 frames\nCodec ID                                 : avc1\nCodec ID/Info                            : Advanced Video Coding\nDuration                                 : 1h 29mn\nBit rate mode                            : Variable\nBit rate                                 : 800 Kbps\nWidth                                    : 720 pixels\nHeight                                   : 568 pixels\nDisplay aspect ratio                     : 16:9\nFrame rate mode                          : Constant\nFrame rate                               : 25.000 fps\nColor space                              : YUV\nChroma subsampling                       : 4:2:0\nBit depth                                : 8 bits\nScan type                                : Progressive\nBits/(Pixel*Frame)                       : 0.078\nStream size                              : 513 MiB (84%)\nWriting library                          : x264 core 120\nEncoding settings                        : cabac=1 / ref=1 / deblock=1:0:0\nEncoded date                             : UTC 2014-04-16 11:10:43\nTagged date                              : UTC 2014-04-16 11:28:24\nColor primaries                          : BT.601 NTSC\nTransfer characteristics                 : BT.709\nMatrix coefficients                      : BT.601\n\nAudio\nID                                       : 2\nFormat                                   : MPEG Audio\nFormat version                           : Version 1\nFormat profile                           : Layer 3\nCodec ID                                 : 69\nDuration                                 : 1h 29mn\nBit rate mode                            : Variable\nBit rate                                 : 153 Kbps\nMaximum bit rate                         : 175 Kbps\nChannel(s)                               : 2 channels\nSampling rate                            : 48.0 KHz\nCompression mode                         : Lossy\nDelay relative to video                  : 80ms\nStream size                              : 97.9 MiB (16%)\nWriting library                          : LAME3.98","torrent":{"xt":"urn:btih:974dc86826a973515d3f9b5ca9a7e962d30df29a","amp;dn":"DCI+Banks+S03","amp;tr":["udp%3A%2F%2Ftracker.openbittorrent.com%3A80","udp%3A%2F%2Fopen.demonii.com%3A1337","udp%3A%2F%2Ftracker.coppersurfer.tk%3A6969","udp%3A%2F%2Fexodus.desync.com%3A6969"],"infoHash":"974dc86826a973515d3f9b5ca9a7e962d30df29a","infoHashBuffer":{"type":"Buffer","data":[151,77,200,104,38,169,115,81,93,63,155,92,169,167,233,98,211,13,242,154]},"announce":[],"urlList":[]}}